<?xml version="1.0" standalone="no"?>
<!DOCTYPE svg PUBLIC "-//W3C//DTD SVG 20010904//EN"
 "http://www.w3.org/TR/2001/REC-SVG-20010904/DTD/svg10.dtd">
<svg version="1.0" xmlns="http://www.w3.org/2000/svg"
 width="565.000000pt" height="430.000000pt" viewBox="0 0 565.000000 430.000000"
 preserveAspectRatio="xMidYMid meet">
<metadata>
Created by potrace 1.13, written by Peter Selinger 2001-2015
</metadata>
<g transform="translate(0.000000,430.000000) scale(0.100000,-0.100000)"
fill="#000000" stroke="none">
<path d="M650 4177 c0 -2 -18 -64 -40 -137 -22 -73 -40 -144 -40 -156 0 -13
12 -59 27 -101 27 -77 28 -82 31 -373 4 -313 -9 -544 -34 -632 -28 -96 -28
-119 5 -229 17 -57 35 -107 40 -112 5 -5 14 0 21 14 32 59 107 151 144 176 33
22 56 29 115 33 70 5 74 6 78 30 2 14 8 49 13 79 17 91 13 120 -19 156 -24 28
-30 45 -36 110 -4 42 -3 81 2 85 4 4 34 17 66 29 68 25 100 44 144 84 24 23
34 27 37 16 2 -8 12 -39 21 -69 39 -125 116 -219 199 -241 55 -15 140 -4 201
26 60 29 159 115 181 156 8 16 19 27 23 25 5 -3 14 -33 22 -66 7 -33 18 -60
25 -60 6 0 32 16 57 35 65 50 92 58 168 50 l67 -7 7 43 7 42 19 -41 20 -42 54
36 c69 46 134 56 173 27 15 -10 32 -22 39 -26 8 -5 21 20 39 78 30 92 36 92
49 -2 4 -34 12 -53 20 -53 8 0 37 14 65 32 65 40 138 48 231 23 35 -9 70 -18
78 -18 18 -2 82 124 89 175 4 34 2 38 -24 50 -52 22 -64 38 -64 87 0 25 10 74
22 108 l21 62 23 -49 c32 -68 81 -100 157 -100 l59 0 -7 -42 c-8 -50 -18 -64
-57 -84 -17 -9 -28 -23 -28 -35 0 -23 68 -187 81 -195 5 -2 23 3 40 12 63 32
185 11 301 -53 7 -4 18 17 32 61 5 15 14 7 45 -42 22 -33 44 -62 49 -66 8 -5
29 18 57 62 7 10 79 -29 123 -67 43 -36 55 -42 63 -30 5 8 9 19 9 24 0 6 10
-2 23 -17 22 -28 22 -28 65 -13 42 15 46 14 95 -8 29 -13 76 -45 106 -70 60
-52 66 -54 75 -32 9 24 80 19 135 -9 29 -15 75 -54 116 -100 37 -42 71 -73 76
-70 5 3 7 9 4 14 -3 5 3 14 13 19 34 18 84 -6 177 -86 91 -77 170 -123 214
-123 76 0 153 80 188 195 26 86 26 426 0 535 -23 99 -63 176 -110 214 -32 26
-48 31 -90 31 -29 0 -60 -4 -69 -9 -16 -7 -18 -1 -18 61 0 90 17 180 41 219
10 17 19 47 19 66 0 28 -32 155 -55 216 -3 9 -23 -2 -62 -33 -55 -45 -60 -47
-109 -43 -29 3 -78 18 -115 35 -61 30 -65 31 -81 13 -23 -24 -110 -44 -168
-37 -27 3 -67 15 -90 27 -23 12 -48 19 -55 16 -7 -2 -19 -30 -25 -60 -6 -31
-15 -56 -19 -56 -4 0 -22 25 -40 55 -19 31 -38 58 -43 61 -5 3 -25 -4 -46 -17
-28 -17 -57 -23 -117 -26 -71 -4 -86 -2 -129 21 -27 14 -53 23 -58 20 -17 -10
-68 -124 -68 -150 0 -15 9 -42 21 -60 29 -47 22 -77 -18 -85 -18 -3 -44 -14
-57 -23 l-25 -16 23 35 c34 50 48 142 35 229 -15 103 -12 100 -66 73 -74 -37
-98 -40 -223 -21 -113 17 -208 13 -263 -11 -14 -6 -20 -2 -24 15 -4 16 -11 20
-27 16 -97 -26 -134 -29 -195 -14 -57 14 -62 13 -77 -3 -16 -18 -17 -17 -33 2
-16 19 -16 19 -71 -2 -43 -16 -71 -20 -128 -17 -40 2 -76 8 -80 14 -4 6 -23
14 -43 18 -28 5 -38 3 -43 -9 -7 -20 -111 -20 -146 0 -37 21 -49 18 -63 -17
l-14 -33 -7 33 c-9 37 -22 40 -76 12 -48 -24 -107 -25 -202 -4 -38 9 -73 12
-77 8 -4 -5 -15 -35 -25 -67 l-17 -58 -41 35 c-62 53 -124 79 -201 84 -114 7
-203 -40 -274 -146 l-40 -60 -16 33 c-44 92 -136 153 -245 162 -56 4 -78 1
-136 -21 -37 -14 -82 -26 -98 -26 -27 0 -32 7 -68 85 -33 71 -50 99 -50 82z
m77 -206 c34 -16 55 -14 113 9 84 33 133 41 192 30 105 -20 165 -84 204 -218
17 -58 24 -72 29 -57 52 143 92 204 166 255 128 87 321 16 403 -148 82 -164
71 -408 -26 -579 -89 -157 -251 -255 -370 -223 -98 27 -178 162 -194 329 -9
88 -18 104 -33 58 -27 -82 -117 -153 -243 -193 -65 -20 -62 -11 -58 -144 2
-97 16 -160 41 -186 18 -19 19 -29 12 -80 l-8 -59 -60 -5 c-92 -8 -150 -50
-229 -164 -11 -16 -14 -11 -31 44 -16 52 -17 66 -6 96 27 76 42 236 47 534 7
335 -3 489 -36 584 -21 61 -20 74 12 176 l11 34 20 -41 c11 -23 31 -46 44 -52z
m2110 9 c6 0 16 13 23 29 11 28 13 28 48 19 38 -11 153 -6 185 7 11 5 17 3 17
-6 1 -36 17 -43 57 -23 42 21 162 25 328 10 74 -7 97 -6 129 8 21 9 40 16 42
16 2 0 4 -31 4 -68 0 -58 -4 -75 -29 -113 -26 -41 -43 -53 -104 -73 -17 -6
-18 -19 -15 -185 l3 -179 33 -47 c31 -44 32 -48 21 -86 -7 -21 -13 -39 -14
-39 -2 0 -28 12 -59 26 -60 27 -140 35 -209 21 -37 -8 -38 -7 -56 35 l-18 43
23 12 c12 7 27 27 32 45 11 34 23 243 15 251 -2 3 -17 -8 -33 -24 -23 -23 -37
-29 -72 -29 -85 0 -131 67 -131 189 0 63 -2 71 -13 56 -28 -38 -93 -173 -108
-224 -31 -104 -15 -220 34 -250 27 -16 27 -16 10 -53 -9 -21 -19 -40 -21 -43
-3 -2 -27 2 -54 10 -77 24 -173 20 -231 -10 -27 -14 -50 -25 -50 -25 -1 0 -7
20 -13 44 -10 43 -10 46 18 74 65 64 64 177 -2 301 -52 99 -138 224 -147 214
-20 -23 -32 -92 -37 -223 -7 -185 6 -276 43 -306 l26 -21 -18 -52 c-19 -51
-27 -60 -39 -41 -12 20 -110 11 -161 -15 -27 -14 -52 -25 -55 -25 -3 0 -12 18
-19 40 -12 37 -12 42 8 63 38 40 29 64 -57 148 -44 43 -87 89 -97 104 -9 14
-20 22 -24 18 -4 -4 -4 -53 -1 -108 8 -114 29 -172 67 -181 26 -7 27 -10 18
-67 l-7 -37 -56 2 c-55 1 -129 -25 -146 -52 -14 -23 -33 -7 -44 35 -10 41 -9
48 13 82 41 61 49 126 43 342 -5 203 -16 272 -53 312 -15 17 -16 24 -5 60 11
35 16 40 34 35 88 -24 147 -27 200 -12 30 9 58 16 61 16 3 0 11 -18 17 -40 9
-31 10 -43 1 -52 -30 -30 -13 -65 69 -150 l80 -83 -5 67 c-6 73 -26 131 -57
164 -16 17 -19 29 -14 58 8 40 9 40 69 25 30 -7 60 -8 100 0 45 8 69 7 114 -4
73 -19 115 -18 177 4 l50 18 26 -29 c14 -15 30 -28 36 -28z m2118 4 c16 -54
16 -58 -5 -102 -24 -50 -39 -203 -40 -399 0 -102 12 -135 24 -69 8 41 53 92
89 101 67 17 141 -60 172 -183 22 -86 33 -272 23 -387 -15 -179 -91 -283 -184
-256 -48 14 -66 26 -156 102 -92 79 -156 114 -196 106 -17 -3 -31 1 -39 11 -9
13 -12 14 -13 3 0 -8 -26 11 -58 41 -82 79 -128 100 -214 99 -65 0 -73 2 -112
33 -75 61 -138 83 -194 67 -31 -9 -34 -8 -59 30 -24 36 -43 50 -43 31 0 -5 -6
-17 -14 -27 -13 -18 -15 -18 -50 12 -33 30 -89 53 -127 53 -9 0 -23 -9 -30
-21 -14 -20 -15 -19 -46 24 l-31 45 24 23 c46 43 113 209 85 209 -7 0 -14 -13
-17 -30 -8 -37 -13 -37 -47 -2 -50 52 -56 131 -16 198 22 36 56 54 103 54 26
0 35 5 40 23 12 45 6 123 -12 159 -17 32 -17 39 -4 64 8 16 16 31 18 33 2 2
19 -4 38 -13 44 -21 200 -22 236 -1 37 21 48 18 66 -16 12 -25 14 -37 5 -56
-6 -13 -11 -54 -11 -91 0 -166 108 -657 146 -669 34 -11 59 241 49 470 -7 142
-22 220 -50 263 -17 26 -13 98 5 109 5 3 26 -2 47 -10 48 -21 155 -21 213 0
32 11 46 13 49 4 2 -8 6 -8 11 1 6 10 22 8 71 -10 86 -33 147 -31 196 3 21 15
39 27 40 27 1 0 9 -25 18 -56z m-694 -143 c10 -13 23 -40 28 -60 14 -54 21
-263 13 -371 l-7 -95 -33 160 c-18 88 -39 206 -47 263 -14 95 -14 104 2 135
15 28 18 29 21 12 3 -11 13 -31 23 -44z m-1698 -178 c76 -137 82 -208 21 -248
-30 -20 -71 -5 -84 30 -17 45 -12 315 6 315 1 0 27 -44 57 -97z m1061 22 c-18
-44 -18 -175 0 -218 7 -18 21 -41 31 -51 15 -14 16 -22 6 -42 -14 -32 -29 -27
-63 22 -24 35 -27 50 -33 164 l-7 125 39 17 c21 9 39 17 40 17 1 1 -5 -15 -13
-34z"/>
<path d="M1480 3997 c-47 -15 -122 -93 -153 -159 -45 -94 -69 -211 -69 -335 0
-109 18 -243 34 -243 4 0 5 -6 2 -14 -9 -23 42 -111 87 -150 40 -34 46 -36
113 -36 102 0 175 44 259 155 83 110 117 219 117 375 0 112 -22 199 -66 266
-85 127 -204 179 -324 141z m132 -112 c48 -84 67 -491 28 -617 -21 -68 -65
-122 -95 -116 -61 12 -90 162 -82 433 6 188 20 288 47 320 9 10 26 15 49 13
27 -2 39 -10 53 -33z"/>
<path d="M1531 3891 c-38 -38 -45 -94 -46 -336 0 -242 10 -324 45 -367 l18
-23 22 20 c13 11 32 40 44 65 39 85 33 506 -9 607 -19 45 -49 59 -74 34z m48
-186 c29 -158 23 -385 -13 -453 -14 -27 -14 -27 -23 23 -4 28 -8 138 -8 245 0
268 16 336 44 185z"/>
<path d="M867 3968 c-79 -27 -93 -29 -127 -19 -22 6 -46 18 -54 26 -21 21 -24
19 -37 -24 -8 -28 -8 -43 0 -59 6 -11 18 -51 27 -89 35 -153 27 -842 -13
-1003 -18 -75 -20 -147 -5 -162 8 -8 14 -4 22 13 28 59 140 124 225 131 25 3
30 8 37 43 7 32 5 44 -12 68 -27 35 -40 115 -40 237 l0 95 86 30 c135 47 201
113 235 235 43 157 16 351 -60 429 -81 82 -153 95 -284 49z m136 -110 c49 -66
48 -337 -1 -423 -19 -33 -84 -70 -107 -61 -22 8 -21 324 1 410 28 109 63 133
107 74z"/>
<path d="M927 3823 c-20 -44 -22 -64 -22 -238 0 -184 1 -190 20 -187 30 5 63
40 77 81 8 23 13 90 13 181 0 120 -3 151 -18 178 -24 45 -44 40 -70 -15z"/>
<path d="M1898 3984 c-8 -18 -6 -29 11 -52 25 -35 38 -96 52 -241 14 -149 -12
-411 -41 -411 -11 0 -25 -39 -21 -60 6 -40 10 -41 60 -15 34 17 67 25 100 25
45 0 51 3 56 23 5 18 -2 32 -28 58 -48 48 -58 94 -55 250 l3 132 27 -49 c15
-28 67 -91 116 -141 49 -50 92 -100 95 -112 3 -13 -4 -34 -19 -56 -27 -41 -28
-47 -13 -62 9 -9 25 -7 63 8 28 10 76 19 106 19 43 0 58 4 67 19 9 15 7 25
-14 54 -18 25 -28 57 -35 113 -19 148 4 410 40 446 17 17 44 -9 103 -101 84
-128 112 -189 120 -256 9 -83 -5 -146 -42 -181 -31 -29 -34 -40 -20 -63 7 -11
17 -11 61 4 52 17 160 17 232 -1 20 -5 29 -1 38 15 9 18 7 25 -14 44 -77 71
-48 293 59 455 19 30 35 56 35 59 0 2 14 16 30 30 17 14 30 35 30 47 0 22 -2
22 -112 21 -99 -2 -113 -4 -116 -19 -2 -10 6 -27 18 -38 19 -18 22 -29 18 -77
-4 -63 -37 -151 -55 -151 -7 0 -13 5 -13 11 0 5 -4 7 -10 4 -6 -4 -10 6 -10
22 0 15 -7 36 -15 46 -7 10 -19 40 -25 67 -10 40 -9 53 4 78 12 23 13 33 3 45
-11 14 -19 14 -85 0 -64 -13 -81 -13 -146 0 -54 11 -85 13 -117 6 -24 -6 -67
-7 -96 -3 -66 8 -78 -10 -39 -60 36 -47 56 -134 56 -236 -1 -83 -1 -84 -15
-52 -8 18 -19 31 -25 27 -5 -3 -8 0 -5 7 3 7 -28 48 -70 90 -80 83 -94 113
-76 163 12 34 6 65 -11 65 -6 0 -27 -5 -47 -11 -27 -8 -57 -7 -120 3 -83 15
-83 14 -93 -8z"/>
<path d="M3190 3995 c-55 -25 -89 -65 -106 -123 -34 -115 17 -222 106 -222 53
0 80 29 80 85 0 69 -48 106 -94 72 -16 -12 -17 -16 -5 -36 12 -18 12 -23 -1
-31 -8 -5 -18 -10 -22 -10 -12 0 -20 41 -14 75 8 42 53 60 126 50 l48 -7 7
-71 c7 -89 -8 -333 -24 -367 -6 -14 -16 -32 -23 -41 -6 -9 -8 -24 -5 -33 5
-13 22 -16 98 -16 88 0 159 -14 159 -32 0 -4 8 -8 19 -8 31 0 34 40 5 82 -37
53 -43 93 -44 274 l0 160 47 15 c34 11 54 25 70 48 28 42 42 91 36 125 -5 22
-9 25 -27 19 -24 -9 -111 -9 -281 1 -99 5 -126 4 -155 -9z"/>
<path d="M4100 3994 c-30 -17 -169 -18 -224 -3 -56 15 -65 2 -42 -62 14 -38
17 -67 13 -113 -8 -89 -10 -91 -66 -91 -34 0 -55 -6 -70 -19 -28 -25 -43 -85
-33 -131 8 -43 37 -69 51 -47 5 8 19 12 32 10 21 -3 24 -7 21 -43 -4 -46 -24
-92 -65 -153 -26 -38 -28 -47 -18 -70 9 -19 15 -22 23 -14 7 7 26 12 43 12 32
0 128 -41 139 -59 11 -17 24 -13 31 8 4 13 -5 35 -26 64 -23 32 -33 61 -37 98
l-5 52 24 -16 c33 -24 94 -22 112 3 8 11 17 17 20 13 13 -13 7 -141 -9 -178
-12 -30 -13 -44 -5 -63 10 -21 16 -23 47 -17 50 9 134 -19 184 -62 39 -34 42
-35 55 -17 12 16 14 17 15 3 0 -21 20 -29 76 -29 43 0 124 -28 124 -42 0 -5 5
-8 12 -8 7 0 29 -17 50 -37 31 -31 38 -34 44 -20 7 19 5 31 -31 177 -25 103
-26 111 -22 385 3 261 5 284 26 340 32 86 34 98 18 119 -13 17 -18 18 -45 7
-32 -13 -175 -11 -219 4 -36 12 -39 -27 -8 -96 34 -77 48 -236 40 -454 -7
-166 -22 -246 -54 -286 l-19 -23 -19 39 c-45 89 -96 300 -133 552 -12 82 -10
194 3 224 5 10 1 24 -10 36 -16 18 -21 19 -43 7z m-130 -274 c50 -209 29 -272
-44 -128 -37 73 -38 79 -27 122 6 25 11 58 11 75 0 34 9 61 20 61 5 0 22 -59
40 -130z"/>
<path d="M4647 3994 c-12 -13 -8 -64 9 -96 42 -81 48 -133 48 -423 1 -302 -10
-411 -45 -446 -19 -19 -19 -30 -3 -90 3 -12 21 -19 58 -23 49 -7 63 -15 167
-102 120 -99 171 -124 210 -103 39 20 67 63 90 134 20 60 23 90 23 215 -1 227
-46 382 -125 424 -31 17 -38 18 -64 5 -50 -24 -73 -81 -74 -178 -1 -90 14
-161 35 -161 7 0 14 5 16 11 6 19 44 -10 62 -48 22 -46 31 -158 17 -210 -15
-54 -42 -71 -77 -48 -71 46 -92 142 -99 447 -6 304 6 509 35 577 19 43 20 55
10 85 -11 35 -12 35 -38 22 -57 -28 -118 -26 -227 9 -11 3 -24 3 -28 -1z"/>
<path d="M4611 3876 c-23 -58 -31 -156 -31 -362 0 -230 10 -344 36 -426 16
-48 27 -58 40 -37 29 47 45 488 24 668 -10 91 -36 181 -51 181 -5 0 -14 -11
-18 -24z"/>
<path d="M4921 3149 c-2 -121 29 -228 78 -273 20 -19 23 -19 39 -2 25 24 24
187 -1 234 -21 39 -47 43 -47 7 0 -14 -4 -25 -10 -25 -10 0 -44 67 -53 105 -2
11 -5 -10 -6 -46z"/>
<path d="M3800 2964 c-14 -2 -59 -9 -100 -15 -126 -17 -319 -57 -675 -139
-513 -118 -653 -144 -883 -165 l-72 -7 -12 32 c-21 61 -101 76 -194 35 -31
-14 -61 -25 -66 -25 -12 0 -148 101 -172 129 -40 44 -75 18 -97 -74 -6 -27
-14 -53 -18 -57 -5 -6 -97 7 -193 27 -24 5 -30 4 -22 -4 11 -12 177 -71 199
-71 15 0 30 -18 22 -26 -3 -3 -55 14 -116 37 -62 23 -114 39 -117 36 -3 -2 64
-35 148 -72 84 -37 154 -68 156 -70 2 -1 -13 -20 -32 -41 -20 -22 -36 -42 -36
-46 0 -4 25 -12 55 -18 33 -7 79 -27 114 -51 81 -54 85 -53 76 27 -4 41 -3 64
3 60 14 -9 23 -93 12 -121 -5 -13 -6 -26 -2 -29 12 -7 190 53 207 70 8 9 12
20 9 26 -5 8 3 9 25 5 99 -20 284 -29 476 -24 218 6 306 15 710 72 132 19 285
39 339 45 151 18 223 0 197 -48 -15 -29 -111 -112 -130 -113 -9 -1 -22 -2 -30
-3 -8 0 -20 -19 -26 -41 -47 -153 -46 -132 -7 -208 35 -67 35 -69 22 -122
l-13 -55 -434 -2 c-268 -2 -433 1 -433 6 0 6 19 79 41 163 40 146 41 153 25
178 l-16 25 -208 1 c-246 1 -746 1 -960 0 -84 -1 -151 -5 -148 -9 3 -5 86 -12
185 -16 251 -9 268 -22 43 -31 -100 -4 -182 -10 -182 -14 0 -4 107 -13 238
-20 130 -7 253 -13 272 -14 19 -1 -62 -6 -180 -10 -118 -4 -289 -10 -380 -14
l-165 -8 110 -6 c61 -3 223 -10 360 -15 138 -4 241 -9 230 -11 -11 -1 -207
-12 -435 -23 -228 -12 -416 -23 -419 -25 -2 -3 101 -6 230 -6 129 -1 299 -4
379 -8 l145 -6 -265 -18 c-512 -34 -565 -38 -580 -41 -8 -2 181 -5 420 -6
l435 -2 -395 -28 c-637 -46 -644 -48 -135 -42 253 2 458 2 455 -1 -5 -5 -133
-17 -245 -22 -86 -3 -219 -16 -224 -21 -2 -2 133 -5 300 -5 l304 -2 -103 -15
c-56 -8 -101 -17 -98 -19 2 -2 41 -6 86 -8 46 -3 85 -6 87 -8 4 -4 -156 -12
-447 -22 -85 -3 -193 -8 -240 -11 -47 -2 -186 -7 -310 -10 -123 -3 -226 -7
-229 -10 -2 -2 119 -5 270 -6 151 -1 294 -3 319 -4 25 -2 144 -3 264 -3 121
-1 217 -3 214 -6 -7 -7 -457 -32 -723 -41 -390 -12 -263 -22 265 -19 294 2
510 1 480 -1 -160 -11 -391 -25 -600 -36 l-235 -13 160 -6 c88 -4 273 -8 410
-10 138 -2 210 -4 160 -6 -49 -2 -246 -10 -437 -18 -190 -8 -395 -15 -455 -16
-59 -1 -119 -5 -133 -9 -14 -4 227 -9 535 -11 341 -1 517 -5 450 -9 -60 -4
-163 -8 -227 -9 -66 0 -120 -5 -123 -11 -4 -6 49 -10 152 -11 186 -2 433 -15
333 -17 -127 -4 -350 -15 -347 -18 1 -2 98 -8 216 -14 180 -10 218 -14 244
-31 18 -10 42 -19 55 -19 l23 0 -27 -35 c-76 -100 7 -210 134 -176 108 29 162
113 127 201 -4 13 2 15 35 12 l40 -4 -20 -25 c-10 -13 -24 -40 -30 -59 -10
-28 -9 -40 7 -71 35 -72 140 -82 222 -22 58 41 78 87 64 142 -6 23 -11 42 -10
42 1 0 32 -1 70 -3 42 -2 67 -8 67 -15 0 -66 66 -158 135 -188 136 -60 328 -7
437 120 l36 42 12 -36 c26 -78 111 -139 212 -151 65 -8 158 14 232 54 59 31
137 107 155 149 6 16 27 37 46 47 60 33 75 59 116 198 73 251 56 277 -193 278
-60 0 -108 3 -108 8 0 4 6 26 13 49 9 31 32 61 89 115 74 71 76 75 97 154 25
97 25 104 6 104 -10 0 7 28 45 76 124 156 203 295 216 379 9 63 -16 108 -74
137 -40 19 -64 23 -157 25 -60 0 -121 -1 -135 -3z m-2170 -199 c14 -14 44 -38
67 -53 24 -15 43 -31 43 -35 0 -4 -8 -19 -17 -34 -22 -34 -73 -54 -115 -46
-54 10 -61 20 -54 84 11 108 32 131 76 84z m2300 -33 c33 -16 35 -20 35 -68
-1 -43 -7 -62 -38 -108 -52 -79 -175 -206 -199 -206 -16 0 -8 13 36 62 59 64
100 136 94 164 -7 38 -54 58 -145 62 -101 5 -216 -9 -648 -78 -527 -84 -737
-105 -930 -95 -71 4 -133 9 -137 11 -4 3 0 17 9 32 l15 27 177 1 c211 1 361
20 856 109 537 97 576 102 725 104 91 1 122 -3 150 -17z m-1930 -47 c38 -19
39 -50 5 -122 -21 -47 -28 -53 -54 -53 -36 0 -76 16 -111 45 -20 16 -24 28
-22 56 3 32 8 37 60 62 66 31 82 32 122 12z m-265 -203 c0 -50 -1 -92 -2 -92
-1 0 -24 13 -49 30 -26 16 -63 33 -81 36 -33 6 -34 7 -16 27 35 40 116 98 132
95 13 -3 16 -19 16 -96z m112 41 c72 -60 103 -91 103 -103 0 -9 -119 -70 -136
-70 -3 0 -2 15 1 33 4 19 0 60 -9 94 -26 98 -24 99 41 46z m740 -364 c18 -6
39 -20 47 -31 13 -18 13 -25 1 -48 -20 -39 -62 -51 -200 -59 l-120 -6 -3 -33
c-2 -22 2 -34 12 -38 39 -15 7 -20 -109 -20 l-125 0 26 27 c45 47 82 177 54
194 -29 18 3 25 128 28 159 4 244 0 289 -14z m1343 -336 c0 -5 -7 -16 -14 -25
-12 -17 -70 -18 -959 -18 l-947 0 12 25 11 25 949 0 c521 0 948 -3 948 -7z
m-1244 -116 c3 -2 -3 -14 -13 -26 -18 -21 -20 -21 -361 -19 l-344 3 24 25 23
25 333 -2 c184 -1 336 -4 338 -6z m445 -27 c67 -35 99 -87 99 -162 0 -64 -24
-115 -83 -176 -61 -63 -227 -137 -227 -101 0 21 33 119 40 119 4 0 18 -20 31
-45 24 -45 45 -61 35 -27 -2 9 -7 36 -11 59 l-7 42 54 -29 c71 -39 79 -38 35
8 -20 21 -37 41 -37 46 0 4 27 6 59 4 33 -1 62 0 65 3 3 3 -20 13 -51 23 -62
20 -60 25 22 46 78 20 75 30 -6 24 l-74 -6 55 37 c81 55 82 59 6 31 -37 -14
-70 -26 -73 -26 -3 0 11 22 31 49 20 27 36 52 36 56 0 4 -25 -14 -55 -40 -57
-48 -62 -46 -44 18 17 61 4 66 -24 10 -15 -28 -31 -54 -36 -57 -5 -3 -15 16
-22 44 -7 27 -16 50 -21 50 -4 0 -8 -24 -8 -53 0 -30 -3 -57 -7 -61 -4 -3 -26
13 -50 36 -48 47 -53 43 -21 -19 12 -23 20 -44 17 -47 -3 -3 -27 1 -54 9 -76
23 -84 17 -27 -19 47 -30 50 -34 30 -40 -13 -3 -42 -6 -65 -6 -57 0 -67 -20
-11 -21 24 -1 54 -4 68 -8 24 -7 24 -7 -10 -23 -19 -9 -53 -23 -74 -32 -47
-20 -44 -30 5 -15 19 6 50 13 69 15 l35 5 -52 -50 c-29 -28 -53 -52 -53 -55 0
-3 29 13 65 35 35 21 67 39 70 39 3 0 -8 -27 -25 -60 -17 -33 -27 -60 -23 -60
5 1 26 23 47 50 22 28 43 50 48 50 4 0 8 -28 8 -61 l0 -61 -57 4 c-112 8 -182
66 -191 157 -17 176 188 337 394 310 28 -4 62 -12 75 -19z m612 -5 c82 -39
117 -142 78 -230 -31 -70 -62 -107 -123 -147 -72 -47 -139 -68 -217 -68 -273
1 -290 306 -25 436 91 44 207 48 287 9z m-1323 -92 c0 -5 -7 -16 -14 -25 -12
-16 -35 -18 -235 -18 -121 0 -221 3 -221 6 0 3 5 14 10 25 10 18 23 19 235 19
124 0 225 -3 225 -7z m-278 -173 c25 -26 29 -36 24 -63 -15 -75 -91 -130 -169
-124 -61 5 -91 32 -91 82 0 45 29 84 84 113 64 32 114 29 152 -8z m286 19 c63
-22 66 -106 5 -159 -59 -52 -117 -64 -174 -35 -62 33 -58 110 9 165 45 37 62
38 62 3 0 -25 0 -26 -20 -8 -22 20 -26 14 -9 -16 9 -18 7 -19 -18 -14 -27 6
-27 6 -9 -9 19 -15 18 -16 -13 -16 -36 0 -34 -20 2 -20 19 -1 18 -3 -8 -15
l-30 -15 28 4 c20 2 25 0 18 -7 -18 -18 -12 -28 10 -17 19 11 20 10 9 -9 -13
-25 -3 -27 22 -4 18 16 18 16 12 0 -3 -9 -2 -17 4 -17 5 0 13 8 17 18 6 16 7
16 21 -2 14 -20 18 -16 14 17 -1 16 2 17 19 8 30 -17 36 -13 15 10 -18 20 -18
20 9 14 30 -8 38 8 10 20 -17 7 -16 8 2 15 l20 9 -20 1 c-18 0 -18 2 5 20 28
22 24 25 -16 9 -28 -10 -28 -10 -9 10 22 25 9 28 -17 4 -19 -17 -19 -16 -13
12 l7 30 -20 -24 -19 -24 -5 27 c-5 23 -2 26 22 26 15 0 41 -5 58 -11z"/>
<path d="M3627 1668 c-8 -12 -24 -40 -35 -62 l-21 -38 -17 58 c-17 56 -18 58
-25 29 -4 -16 -7 -45 -8 -63 l-1 -34 -47 41 c-25 23 -48 40 -50 38 -2 -2 9
-25 23 -51 14 -26 24 -49 22 -51 -2 -2 -30 3 -62 11 -32 8 -60 13 -63 11 -2
-3 17 -17 43 -32 53 -31 46 -45 -23 -45 -78 0 -82 -14 -8 -25 l70 -10 -67 -32
c-38 -18 -68 -34 -68 -36 0 -3 26 2 58 9 86 20 89 18 33 -32 -29 -26 -50 -48
-48 -51 3 -2 31 12 63 31 32 20 60 34 62 32 2 -2 -6 -23 -18 -46 -32 -62 -20
-65 28 -8 l42 50 0 -63 c0 -72 9 -69 35 9 9 30 21 50 25 45 4 -4 19 -26 34
-48 l27 -40 -6 58 c-4 31 -3 57 1 57 5 0 29 -12 53 -25 24 -14 46 -23 49 -20
3 3 -12 24 -34 46 l-39 41 68 -4 c37 -2 67 -1 67 2 0 3 -26 15 -57 26 l-56 21
71 18 c40 10 72 22 72 27 0 4 -29 5 -65 1 -36 -3 -65 -4 -65 -1 0 3 25 22 56
42 31 21 54 39 51 42 -2 2 -30 -7 -62 -21 -31 -14 -60 -23 -63 -20 -3 3 9 23
27 46 18 22 31 43 27 46 -3 3 -26 -13 -53 -35 -26 -23 -48 -40 -50 -39 -1 2 4
27 12 57 16 61 14 73 -8 38z"/>
<path d="M2057 1408 c-13 -19 -16 -20 -16 -5 -1 25 -21 21 -21 -5 0 -21 0 -21
-21 -2 -22 19 -22 19 -15 -9 6 -25 5 -27 -12 -18 -11 6 -22 7 -26 4 -4 -4 4
-13 16 -20 22 -12 22 -12 -11 -13 -36 0 -33 -14 4 -23 18 -4 18 -5 -2 -6 -13
0 -23 -6 -23 -12 0 -7 9 -9 21 -6 20 5 20 5 3 -14 -19 -21 -13 -24 16 -9 15 8
17 6 13 -13 -4 -20 -3 -21 10 -4 19 23 27 22 28 -5 0 -20 2 -19 11 6 l11 29
13 -24 13 -24 1 28 c0 25 2 26 20 17 22 -12 27 -1 8 19 -11 10 -8 11 15 6 30
-8 39 10 10 18 -15 4 -15 6 5 12 12 4 22 12 22 17 0 5 -10 7 -22 3 -21 -6 -22
-5 -5 8 23 19 21 26 -5 19 -21 -5 -22 -4 -9 11 18 22 3 22 -21 0 -19 -17 -19
-16 -13 10 9 33 3 34 -18 5z"/>
<path d="M4075 1838 c-2 -7 -22 -78 -44 -158 -21 -80 -42 -153 -46 -162 -24
-60 86 35 123 106 33 64 37 156 8 199 -20 29 -34 34 -41 15z"/>
<path d="M3951 1388 c-13 -46 -25 -91 -28 -100 -4 -12 0 -18 10 -18 10 0 20
18 29 53 l13 52 5 -50 c5 -48 6 -50 38 -53 31 -3 32 -2 26 25 -4 15 -13 46
-21 68 -8 22 -10 35 -5 30 5 -6 30 -36 56 -67 34 -41 55 -58 72 -58 13 0 24 3
24 8 0 8 -182 192 -191 192 -3 0 -16 -37 -28 -82z"/>
<path d="M2075 1093 c-50 -14 -292 -13 -340 1 -16 5 -29 -7 -71 -71 l-50 -77
-90 -1 c-49 0 -126 -5 -170 -9 -68 -7 -85 -6 -104 7 -22 15 -25 14 -72 -26
-68 -57 -75 -72 -49 -108 26 -35 26 -66 0 -149 -25 -81 -57 -136 -103 -178
-20 -18 -36 -36 -36 -41 0 -8 46 -78 79 -120 l19 -25 32 27 c37 32 36 32 136
11 51 -11 101 -14 141 -11 l63 6 0 -74 c0 -41 2 -75 4 -75 2 0 30 12 62 27 70
32 162 35 259 9 57 -15 63 -15 145 5 100 25 217 22 289 -7 25 -10 46 -13 48
-8 2 5 21 38 44 73 l40 63 77 -5 c42 -3 88 -8 102 -12 22 -5 29 1 63 54 20 34
37 64 37 68 0 4 -10 17 -22 30 l-21 23 49 0 c27 0 60 3 74 6 21 5 22 4 8 -6
-11 -7 -18 -23 -18 -43 0 -34 24 -144 33 -153 3 -3 29 7 58 21 59 30 117 30
165 -2 26 -17 27 -16 50 10 l23 27 33 -20 c38 -23 131 -27 173 -8 22 10 28 9
41 -10 l15 -22 39 27 40 26 88 -18 c113 -23 201 -15 277 25 l55 29 42 -24
c112 -62 291 -50 400 27 13 10 23 7 55 -15 21 -14 52 -31 68 -37 36 -14 196
-14 243 -1 148 43 247 195 206 316 -15 47 -15 49 10 95 21 39 26 61 26 123 0
112 -1 113 -71 75 l-58 -32 -57 18 c-81 25 -185 9 -250 -40 l-32 -23 -7 54 -6
55 -61 -31 -62 -31 -59 18 c-78 24 -170 10 -235 -36 l-44 -31 -34 30 c-46 41
-103 55 -189 47 -195 -19 -194 -19 -220 -2 -24 16 -26 15 -62 -18 -38 -34 -38
-34 -62 -15 -39 32 -89 38 -274 34 -145 -3 -182 -7 -196 -19 -16 -15 -21 -15
-57 0 -31 13 -59 15 -134 11 -53 -3 -103 -9 -113 -13 -13 -5 -17 -1 -16 17 1
23 -41 152 -54 165 -3 3 -30 -1 -60 -10 -61 -18 -161 -20 -222 -6 -26 6 -41 6
-44 -1 -2 -6 -10 -5 -20 4 -14 12 -23 12 -66 0z m45 -67 c13 -36 26 -39 47
-11 18 24 19 24 108 15 l90 -9 -87 3 c-98 4 -120 -6 -100 -47 18 -38 20 -51 6
-77 -18 -36 -91 -104 -98 -92 -3 6 -9 37 -12 70 -6 52 -4 64 15 88 24 30 27
54 9 72 -9 9 -9 12 0 12 7 0 17 -11 22 -24z m349 -8 c10 -28 9 -34 -5 -43
-109 -65 -324 -236 -324 -258 0 -35 94 -276 121 -309 l30 -38 -26 -39 c-22
-37 -27 -39 -52 -31 -54 17 -58 20 -18 14 36 -4 42 -2 57 24 16 27 16 31 2 42
-21 18 -55 96 -99 229 l-38 114 64 60 c74 69 150 129 220 173 63 40 62 39 50
61 -7 15 -19 19 -43 17 l-33 -3 30 8 c49 14 53 13 64 -21z m-426 9 c-21 -5
-97 -7 -170 -4 -116 5 -133 3 -147 -12 -20 -21 -21 -41 -3 -41 22 0 43 -30 75
-110 34 -84 72 -190 72 -203 0 -12 -82 -88 -190 -175 -52 -42 -96 -80 -98 -84
-2 -5 -9 -8 -15 -8 -20 0 -47 -33 -47 -57 0 -22 3 -23 38 -18 l37 6 -40 -15
c-22 -9 -41 -16 -42 -16 -2 0 -3 20 -3 44 0 42 2 45 52 77 55 36 251 196 280
230 16 18 15 24 -12 102 -47 139 -77 196 -107 209 -16 7 -30 13 -32 15 -2 1 6
17 19 35 l22 33 174 0 c118 0 162 -3 137 -8z m-728 -141 c33 1 99 5 146 9 104
9 152 -3 174 -45 25 -49 20 -67 -22 -72 -21 -3 -56 -13 -78 -22 -38 -16 -39
-18 -21 -32 26 -18 56 -18 84 2 22 15 22 14 22 -24 0 -47 -29 -88 -76 -108
-49 -21 -76 -17 -125 15 -55 37 -72 29 -95 -43 -21 -65 -15 -86 25 -86 38 0
74 43 69 82 -4 27 -4 28 18 13 28 -18 103 -20 139 -3 31 14 38 8 29 -28 -8
-30 -86 -114 -106 -114 -7 0 8 18 35 41 69 59 64 74 -24 72 -69 -1 -71 -2 -87
-35 -36 -70 -122 -74 -122 -5 0 48 38 135 62 143 13 4 28 -1 41 -14 29 -26 61
-42 86 -42 38 0 88 32 105 67 21 45 21 45 -19 37 -26 -4 -43 -1 -68 15 -43 26
-87 27 -117 1 -45 -39 -51 -21 -19 50 28 63 47 80 85 80 27 0 35 -5 40 -25 3
-14 3 -32 0 -41 -4 -11 -1 -14 12 -10 9 3 40 11 67 17 60 15 68 24 49 60 -21
41 -71 53 -168 43 -45 -4 -116 -8 -158 -9 -49 0 -82 -5 -90 -13 -11 -11 -10
-12 2 -9 8 2 12 2 9 0 -4 -2 -5 -21 -2 -41 5 -41 -25 -173 -57 -248 -11 -25
-34 -64 -51 -85 -33 -41 -31 -64 4 -53 12 3 20 5 17 2 -37 -30 -38 -30 -56 -4
-16 25 -16 27 8 45 33 26 72 102 96 186 31 105 36 156 18 180 -13 18 -13 22 7
43 14 15 26 20 37 15 8 -4 42 -7 75 -7z m1159 7 c4 -5 78 -8 164 -8 141 0 160
-2 184 -20 83 -61 49 -199 -64 -256 -27 -14 -71 -23 -127 -27 l-85 -7 -9 -38
c-7 -29 -5 -43 7 -61 14 -22 14 -26 -2 -45 -15 -19 -22 -20 -62 -12 l-45 9 38
2 c66 4 62 1 52 41 -4 15 -3 46 2 70 l9 44 85 6 c146 10 221 64 235 171 6 43
4 50 -23 77 -39 39 -99 47 -225 33 -68 -8 -106 -9 -124 -1 -37 14 -59 -7 -45
-42 11 -30 2 -86 -33 -191 -29 -89 -49 -132 -83 -172 -24 -28 -24 -31 -7 -43
16 -12 16 -13 1 -13 -27 0 -34 48 -10 65 26 18 64 98 97 204 28 89 33 140 14
159 -9 9 -6 17 12 37 25 27 32 29 44 18z m823 -19 c43 -32 57 -64 49 -109 -9
-44 -61 -101 -102 -111 -22 -6 -24 -10 -18 -43 9 -48 23 -75 24 -43 0 51 60
11 60 -41 l0 -32 20 25 c51 64 102 305 69 325 -7 5 -3 16 12 31 18 19 25 21
42 12 13 -6 46 -8 89 -4 37 3 100 9 138 12 113 11 180 -26 180 -96 0 -14 -7
-20 -23 -20 -21 0 -115 -27 -126 -36 -2 -2 2 -10 9 -19 16 -20 54 -19 85 1 24
16 25 16 25 -9 0 -20 -4 -24 -20 -20 -11 3 -20 1 -20 -5 0 -13 -51 0 -82 22
-30 21 -61 20 -108 -4 -48 -25 -50 -16 -12 60 31 62 68 88 102 70 14 -8 20
-21 20 -45 0 -19 2 -35 4 -35 2 0 23 7 46 15 23 8 54 15 67 15 22 0 24 3 18
28 -9 38 -23 49 -77 63 -37 10 -65 10 -141 0 -52 -7 -118 -12 -148 -10 l-54 4
3 -65 c5 -95 -48 -265 -105 -332 -33 -39 -35 -65 -6 -53 13 5 14 3 3 -11 -12
-14 -15 -13 -30 7 -11 14 -22 19 -30 14 -7 -4 -1 10 14 31 29 43 33 76 13 93
-11 8 -16 5 -25 -15 -16 -33 -29 -24 -37 26 -4 25 -16 47 -32 60 l-25 19 42 7
c23 4 44 13 47 20 3 8 13 14 22 14 21 0 61 68 61 102 0 36 -53 85 -101 93 -22
4 -77 3 -122 -1 -45 -5 -112 -7 -148 -5 -70 3 -91 -7 -69 -35 32 -38 -39 -284
-105 -362 -15 -18 -26 -34 -24 -36 2 -2 12 -7 22 -13 16 -9 16 -10 -6 -20 -23
-11 -25 -9 -31 20 -5 25 -1 36 23 61 41 44 70 106 96 211 22 88 24 135 4 135
-14 0 -11 22 5 39 12 14 44 16 200 16 172 0 186 -1 213 -21z m890 9 c50 -16
55 -16 88 0 20 9 38 17 42 17 3 0 3 -18 0 -40 -7 -51 -41 -99 -85 -117 l-35
-14 31 -19 c43 -27 64 -62 59 -102 l-4 -33 -2 35 c-2 53 -27 75 -136 122 -88
38 -100 47 -103 70 -2 18 3 30 15 36 27 14 52 1 82 -44 21 -30 34 -40 60 -42
35 -4 65 14 54 31 -3 5 -1 7 4 4 14 -9 39 21 47 55 6 28 6 28 -38 22 -29 -4
-61 -1 -95 11 -129 42 -271 -44 -271 -164 0 -37 4 -42 43 -65 23 -13 61 -29
83 -35 52 -14 94 -46 94 -72 0 -72 -96 -111 -152 -61 -24 20 -23 26 13 67 26
29 29 38 19 50 -32 39 -140 2 -164 -57 -17 -39 -11 -63 22 -88 13 -11 20 -20
15 -20 -17 0 -63 55 -63 76 0 17 -2 16 -23 -6 -12 -15 -33 -35 -47 -45 l-25
-20 18 21 c9 11 14 24 10 28 -4 4 0 4 10 1 12 -5 19 0 27 20 5 14 10 29 10 33
0 4 -32 6 -71 5 -69 -1 -71 -2 -87 -35 -22 -42 -65 -64 -98 -49 -20 9 -24 17
-22 48 1 37 1 37 5 6 4 -30 7 -33 38 -33 45 0 79 41 69 83 l-6 29 33 -17 c24
-13 46 -16 88 -11 31 4 65 7 75 8 11 1 31 13 44 25 14 13 33 23 42 23 28 0 29
10 4 35 -45 45 -29 118 39 183 63 61 146 76 244 45z m484 -3 c40 -12 50 -11
79 3 18 10 35 17 37 17 1 0 3 -15 3 -34 0 -42 -36 -97 -77 -116 -18 -8 -33
-18 -33 -22 0 -3 15 -16 34 -27 31 -19 55 -65 41 -79 -3 -3 -5 2 -5 10 0 32
-41 65 -121 97 -123 50 -144 74 -94 107 33 21 50 13 75 -35 25 -51 59 -62 107
-35 36 19 63 59 63 94 0 17 -3 19 -19 10 -28 -14 -70 -12 -125 6 -118 40 -266
-47 -266 -158 0 -46 39 -81 115 -103 102 -30 129 -74 78 -127 -21 -22 -36 -28
-68 -28 -22 0 -46 5 -53 12 -19 19 -14 53 11 74 22 19 22 19 5 -2 -41 -48 3
-87 67 -60 43 18 56 57 30 86 -21 24 -55 26 -55 5 0 -8 -5 -15 -11 -15 -5 0
-7 5 -4 11 10 16 -26 38 -63 39 -99 1 -163 -108 -94 -159 15 -11 22 -21 15
-21 -18 0 -63 59 -63 83 0 46 42 91 102 111 16 5 15 8 -7 32 -43 46 -28 120
37 182 62 59 152 73 259 42z m-2941 -47 c12 -27 31 -76 43 -110 l22 -62 -44
-38 c-81 -69 -83 -70 -66 -22 19 53 19 69 0 69 -22 0 -18 21 5 27 15 4 20 14
20 37 -1 35 -14 102 -25 129 -5 12 -3 17 8 17 9 0 25 -20 37 -47z m976 -60
c-11 -84 -48 -123 -118 -123 -32 0 -33 7 -14 71 20 65 36 89 71 104 48 21 69
4 61 -52z m462 55 c23 -23 11 -81 -24 -115 -17 -17 -60 -33 -90 -33 -28 0 -27
6 3 80 28 68 79 100 111 68z m-814 -140 c-32 -100 -71 -181 -86 -176 -10 4
-73 167 -66 172 2 2 36 31 77 64 70 59 75 61 88 43 11 -17 10 -31 -13 -103z
m-437 -169 c20 -57 16 -99 -14 -143 -20 -28 -29 -35 -31 -23 -5 25 -14 21 -40
-18 -23 -37 -39 -41 -97 -24 -24 6 -20 7 16 3 40 -4 48 -2 61 18 15 22 14 26
-8 51 -28 33 -29 47 -10 86 19 35 84 93 99 88 7 -2 17 -19 24 -38z"/>
</g>
</svg>
