<?xml version="1.0" standalone="no"?>
<!DOCTYPE svg PUBLIC "-//W3C//DTD SVG 20010904//EN"
 "http://www.w3.org/TR/2001/REC-SVG-20010904/DTD/svg10.dtd">
<svg version="1.0" xmlns="http://www.w3.org/2000/svg"
 width="512.000000pt" height="468.000000pt" viewBox="0 0 512.000000 468.000000"
 preserveAspectRatio="xMidYMid meet">
<metadata>
Created by potrace 1.13, written by Peter Selinger 2001-2015
</metadata>
<g transform="translate(0.000000,468.000000) scale(0.100000,-0.100000)"
fill="#000000" stroke="none">
<path d="M2375 4674 c-146 -14 -245 -29 -350 -51 -930 -194 -1689 -869 -1986
-1768 l-40 -119 1016 -1016 1015 -1015 -10 -54 c-50 -267 107 -533 368 -623
95 -32 249 -32 345 1 256 88 415 354 366 616 l-11 58 1016 1016 1017 1017 -37
109 c-133 403 -335 734 -634 1036 -422 427 -938 688 -1532 774 -99 15 -460 27
-543 19z m350 -1239 c295 -21 634 -160 880 -358 293 -237 506 -584 584 -954
l19 -88 -648 -650 -648 -650 21 -45 c17 -36 21 -65 22 -140 0 -86 -3 -101 -31
-160 -54 -114 -128 -181 -245 -220 -81 -28 -185 -24 -274 10 -84 32 -183 131
-215 215 -34 90 -38 187 -10 276 l22 72 -645 646 -645 646 19 91 c34 166 126
394 216 537 279 445 764 738 1283 776 103 8 131 8 295 -4z"/>
<path d="M2480 3265 l-75 -75 78 -78 77 -77 77 77 78 78 -75 75 c-41 41 -77
75 -80 75 -3 0 -39 -34 -80 -75z"/>
<path d="M1931 2566 c-207 -207 -369 -376 -363 -380 16 -10 52 -113 63 -178
12 -74 -3 -178 -37 -258 l-27 -62 367 -367 368 -368 36 19 c75 38 141 51 242
46 83 -4 108 -10 166 -37 l68 -32 372 372 372 372 -32 66 c-29 62 -31 73 -31
181 0 82 5 126 17 155 9 22 21 54 28 70 l13 30 -374 372 c-348 346 -374 370
-393 358 -12 -8 -49 -23 -83 -34 -110 -37 -258 -25 -364 29 l-35 19 -373 -373z
m705 -381 c169 -50 232 -270 116 -405 -53 -63 -103 -85 -192 -85 -87 0 -137
22 -188 80 -45 50 -62 98 -62 169 0 113 68 209 170 241 59 18 96 18 156 0z"/>
<path d="M3732 2027 c-39 -40 -72 -77 -72 -82 0 -6 34 -44 75 -85 l75 -75 78
78 77 77 -80 80 -80 80 -73 -73z"/>
<path d="M1230 2015 l-75 -76 80 -74 80 -75 72 72 c40 40 73 76 73 80 0 9
-140 148 -149 148 -4 0 -40 -34 -81 -75z"/>
<path d="M2400 617 l0 -72 80 -80 80 -80 80 80 80 80 0 72 0 73 -160 0 -160 0
0 -73z"/>
</g>
</svg>
